# Blender v2.78 (sub 0) OBJ File: ''
# www.blender.org
mtllib Cone.mtl
o Cube
v 0.033400 0.671959 -0.080634
v 0.048890 0.506401 -0.118031
v 0.064381 0.340844 -0.155429
v 0.079871 0.175287 -0.192826
v 0.080634 0.671959 -0.033400
v 0.118031 0.506401 -0.048890
v 0.155429 0.340844 -0.064381
v 0.192826 0.175287 -0.079871
v 0.087277 0.671959 -0.000000
v 0.127756 0.506401 -0.000000
v 0.168235 0.340844 -0.000000
v 0.208713 0.175287 -0.000000
v 0.080634 0.671959 0.033399
v 0.118031 0.506401 0.048890
v 0.155429 0.340844 0.064381
v 0.192826 0.175287 0.079871
v 0.061714 0.671959 0.061714
v 0.090337 0.506401 0.090337
v 0.118960 0.340844 0.118960
v 0.147583 0.175287 0.147583
v 0.033400 0.671959 0.080634
v 0.048890 0.506401 0.118031
v 0.064381 0.340844 0.155428
v 0.079871 0.175287 0.192826
v -0.000000 0.671959 0.087277
v -0.000000 0.506401 0.127756
v -0.000000 0.340844 0.168235
v -0.000000 0.175287 0.208713
v -0.061714 0.671959 -0.061714
v -0.090337 0.506401 -0.090337
v -0.118960 0.340844 -0.118960
v -0.147582 0.175287 -0.147583
v 0.000000 0.175287 -0.208713
v 0.000000 0.340844 -0.168235
v 0.000000 0.506401 -0.127756
v 0.000000 0.671959 -0.087277
v 0.061714 0.671959 -0.061714
v 0.090337 0.506401 -0.090337
v 0.118960 0.340844 -0.118960
v 0.147583 0.175287 -0.147583
v -0.033400 0.671959 0.080634
v -0.048890 0.506401 0.118031
v -0.064381 0.340844 0.155428
v -0.079871 0.175287 0.192826
v -0.061714 0.671959 0.061714
v -0.090337 0.506401 0.090337
v -0.118960 0.340844 0.118960
v -0.147583 0.175287 0.147583
v -0.080634 0.671959 0.033399
v -0.118031 0.506401 0.048890
v -0.155429 0.340844 0.064380
v -0.192826 0.175287 0.079871
v -0.087277 0.671959 -0.000000
v -0.127756 0.506401 -0.000000
v -0.168235 0.340844 -0.000000
v -0.208713 0.175287 -0.000000
v -0.080634 0.671959 -0.033400
v -0.118031 0.506401 -0.048890
v -0.155428 0.340844 -0.064381
v -0.192826 0.175287 -0.079871
v -0.033399 0.671959 -0.080634
v -0.048890 0.506401 -0.118031
v -0.064380 0.340844 -0.155429
v -0.079871 0.175287 -0.192826
v -0.000000 0.009730 -0.249154
v 0.000000 0.009895 -0.249152
v 0.095347 0.009730 -0.230188
v 0.095346 0.009895 -0.230186
v 0.017906 0.837516 -0.043230
v 0.017924 0.837350 -0.043274
v 0.176179 0.009730 -0.176179
v 0.176177 0.009895 -0.176177
v 0.033086 0.837516 -0.033087
v 0.033120 0.837350 -0.033120
v 0.230188 0.009730 -0.095347
v 0.230186 0.009895 -0.095346
v 0.043274 0.837350 -0.017925
v 0.043230 0.837516 -0.017906
v 0.249154 0.009730 -0.000000
v 0.249152 0.009895 -0.000000
v 0.046791 0.837516 -0.000000
v 0.046839 0.837350 -0.000000
v 0.230188 0.009730 0.095347
v 0.230186 0.009895 0.095346
v 0.043230 0.837516 0.017906
v 0.043274 0.837350 0.017924
v 0.176179 0.009730 0.176179
v 0.176177 0.009895 0.176177
v 0.033086 0.837516 0.033086
v 0.033120 0.837350 0.033120
v 0.095347 0.009730 0.230188
v 0.095346 0.009895 0.230186
v 0.017924 0.837350 0.043273
v 0.017906 0.837516 0.043229
v -0.000000 0.009730 0.249154
v -0.000000 0.009895 0.249152
v -0.000000 0.837516 0.046791
v -0.000000 0.837350 0.046839
v -0.017906 0.837516 0.043229
v -0.017924 0.837350 0.043273
v -0.095347 0.009730 0.230188
v -0.095346 0.009895 0.230186
v -0.033086 0.837516 0.033086
v -0.033120 0.837350 0.033120
v -0.176179 0.009730 0.176178
v -0.176177 0.009895 0.176177
v -0.043230 0.837516 0.017906
v -0.043274 0.837350 0.017924
v -0.230188 0.009730 0.095347
v -0.230186 0.009895 0.095346
v -0.046791 0.837516 -0.000000
v -0.046839 0.837350 -0.000000
v -0.249154 0.009730 -0.000000
v -0.249152 0.009895 -0.000000
v -0.043229 0.837516 -0.017906
v -0.043273 0.837350 -0.017925
v -0.230188 0.009730 -0.095347
v -0.230186 0.009895 -0.095346
v -0.176178 0.009730 -0.176179
v -0.176177 0.009895 -0.176177
v -0.033086 0.837516 -0.033087
v -0.033120 0.837350 -0.033120
v -0.095347 0.009730 -0.230189
v -0.095346 0.009895 -0.230186
v -0.017924 0.837350 -0.043274
v -0.017906 0.837516 -0.043230
v 0.000000 0.837516 -0.046791
v 0.000000 0.837350 -0.046839
v 0.299325 -0.016619 -0.299925
v 0.299925 -0.016619 -0.299325
v 0.299925 -0.016619 0.299325
v 0.299325 -0.016619 0.299925
v -0.299325 -0.016619 0.299925
v -0.299925 -0.016619 0.299325
v -0.299925 -0.016619 -0.299325
v -0.299325 -0.016619 -0.299925
v 0.299325 0.016586 -0.299925
v 0.299325 0.016619 -0.299325
v 0.299925 0.016586 -0.299325
v 0.299325 0.016586 0.299925
v 0.299925 0.016586 0.299325
v 0.299325 0.016619 0.299325
v -0.299925 0.016586 0.299325
v -0.299325 0.016586 0.299925
v -0.299325 0.016619 0.299325
v -0.299925 0.016586 -0.299325
v -0.299325 0.016619 -0.299325
v -0.299325 0.016586 -0.299925
vt 0.3036 0.9293
vt 0.2704 0.8769
vt 0.3008 0.8459
vt 0.3512 0.8817
vt 0.1390 0.8995
vt 0.1926 0.8222
vt 0.2043 0.8259
vt 0.1841 0.9181
vt 0.3170 0.8061
vt 0.3770 0.8198
vt 0.3166 0.7634
vt 0.3770 0.7528
vt 0.2997 0.7244
vt 0.3511 0.6913
vt 0.2688 0.6953
vt 0.3032 0.6447
vt 0.2287 0.6807
vt 0.2412 0.6204
vt 0.1850 0.6819
vt 0.1746 0.6210
vt 0.2327 0.6733
vt 0.2124 0.7654
vt 0.2002 0.7661
vt 0.1839 0.6733
vt 0.1448 0.6975
vt 0.1132 0.6454
vt 0.1144 0.7274
vt 0.0651 0.6914
vt 0.0982 0.7668
vt 0.0386 0.7527
vt 0.0987 0.8095
vt 0.0380 0.8198
vt 0.1157 0.8489
vt 0.0635 0.8820
vt 0.1045 0.8652
vt 0.1833 0.8144
vt 0.2165 0.8254
vt 0.2327 0.9181
vt 0.7585 0.3301
vt 0.8691 0.4135
vt 0.6398 0.3758
vt 0.7358 0.2774
vt 0.1112 0.9296
vt 0.1468 0.8789
vt 0.1871 0.8947
vt 0.1737 0.9553
vt 0.2305 0.8940
vt 0.2413 0.9552
vt 0.0911 0.3512
vt 0.1316 0.2938
vt 0.1675 0.3080
vt 0.1521 0.3764
vt 0.3708 0.8990
vt 0.2936 0.8440
vt 0.3073 0.8083
vt 0.4001 0.8293
vt 0.2031 0.3170
vt 0.1918 0.2507
vt 0.2078 0.2435
vt 0.2435 0.3002
vt 0.0857 0.8202
vt 0.1779 0.8037
vt 0.0444 0.3046
vt 0.1037 0.2670
vt 0.3170 0.9518
vt 0.2673 0.8715
vt 0.1593 0.3170
vt 0.1741 0.2513
vt 0.0192 0.2437
vt 0.0882 0.2317
vt 0.2472 0.9796
vt 0.2325 0.8865
vt 0.1188 0.3003
vt 0.1576 0.2451
vt 0.0856 0.7715
vt 0.1772 0.7918
vt 0.0192 0.1779
vt 0.0873 0.1932
vt 0.1724 0.9784
vt 0.1944 0.8866
vt 0.0878 0.2693
vt 0.1445 0.2332
vt 0.1042 0.7265
vt 0.1811 0.7805
vt 0.0446 0.1173
vt 0.1013 0.1576
vt 0.1038 0.9493
vt 0.1590 0.8716
vt 0.0710 0.2289
vt 0.1371 0.2173
vt 0.1387 0.6920
vt 0.1892 0.7714
vt 0.0913 0.0714
vt 0.1278 0.1303
vt 0.0505 0.8966
vt 0.1304 0.8451
vt 0.0710 0.1852
vt 0.1363 0.1999
vt 0.1519 0.0474
vt 0.1627 0.1156
vt 0.0211 0.8276
vt 0.1140 0.8106
vt 0.0879 0.1450
vt 0.1423 0.1836
vt 0.2779 0.6920
vt 0.2240 0.7693
vt 0.2168 0.0485
vt 0.2008 0.1157
vt 0.0205 0.7525
vt 0.1125 0.7728
vt 0.1189 0.1144
vt 0.1541 0.1710
vt 0.3123 0.7265
vt 0.2332 0.7774
vt 0.2762 0.0736
vt 0.2362 0.1310
vt 0.0489 0.6830
vt 0.1260 0.7375
vt 0.1591 0.0982
vt 0.1700 0.1640
vt 0.3310 0.7715
vt 0.2387 0.7880
vt 0.3228 0.1188
vt 0.2648 0.1567
vt 0.1021 0.6298
vt 0.1524 0.7101
vt 0.2024 0.0984
vt 0.1875 0.1638
vt 0.3310 0.8202
vt 0.2395 0.7999
vt 0.3488 0.1786
vt 0.2807 0.1913
vt 0.1718 0.6010
vt 0.1876 0.6949
vt 0.2425 0.1149
vt 0.2042 0.1701
vt 0.3123 0.8652
vt 0.2356 0.8113
vt 0.3496 0.2440
vt 0.2818 0.2292
vt 0.2474 0.6010
vt 0.2262 0.6941
vt 0.2735 0.1453
vt 0.2174 0.1815
vt 0.2778 0.8995
vt 0.2275 0.8202
vt 0.3250 0.3047
vt 0.2680 0.2647
vt 0.3174 0.6300
vt 0.2623 0.7081
vt 0.2906 0.1853
vt 0.2249 0.1972
vt 0.2787 0.3512
vt 0.2414 0.2922
vt 0.3711 0.6835
vt 0.2904 0.7347
vt 0.2909 0.2289
vt 0.2257 0.2145
vt 0.2043 0.8258
vt 0.1926 0.8221
vt 0.1834 0.8144
vt 0.1780 0.8037
vt 0.1773 0.7918
vt 0.1812 0.7805
vt 0.1893 0.7715
vt 0.2002 0.7662
vt 0.2124 0.7655
vt 0.2240 0.7694
vt 0.2331 0.7774
vt 0.2386 0.7880
vt 0.2394 0.7999
vt 0.2355 0.8112
vt 0.2275 0.8201
vt 0.2165 0.8253
vt 0.2179 0.3764
vt 0.2061 0.3074
vt 0.4002 0.7536
vt 0.3062 0.7699
vt 0.2744 0.2693
vt 0.2197 0.2307
vt 0.8691 0.1760
vt 0.7731 0.2744
vt 0.7504 0.2217
vt 0.6398 0.1383
vt 0.6395 0.1385
vt 0.7503 0.2218
vt 0.7357 0.2773
vt 0.6395 0.3755
vt 0.7584 0.3299
vt 0.7359 0.2773
vt 0.7504 0.2219
vt 0.7730 0.2745
vt 0.8693 0.4133
vt 0.7586 0.3300
vt 0.7731 0.2745
vt 0.8693 0.1763
vt 0.2413 0.9552
vt 0.1737 0.9554
vt 0.3770 0.8198
vt 0.3512 0.8817
vt 0.2412 0.6203
vt 0.3033 0.6447
vt 0.1112 0.9297
vt 0.0635 0.8820
vt 0.3036 0.9293
vt 0.3770 0.7528
vt 0.3511 0.6912
vt 0.1746 0.6209
vt 0.1131 0.6453
vt 0.0651 0.6913
vt 0.0385 0.7527
vt 0.0379 0.8198
vn 0.7015 0.1255 -0.7015
vn 0.6868 0.2375 -0.6868
vn 0.8974 0.2375 -0.3717
vn 0.9166 0.1255 -0.3797
vn 0.0000 0.2375 -0.9714
vn 0.0000 0.2563 -0.9666
vn 0.3699 0.2563 -0.8930
vn 0.3717 0.2375 -0.8974
vn 0.9714 0.2375 0.0000
vn 0.9921 0.1255 0.0000
vn 0.8974 0.2375 0.3717
vn 0.9166 0.1255 0.3797
vn 0.6868 0.2375 0.6868
vn 0.7015 0.1255 0.7015
vn 0.3717 0.2375 0.8974
vn 0.3797 0.1255 0.9166
vn 0.0000 0.2375 0.9714
vn 0.0000 0.1255 0.9921
vn -0.3717 0.2375 0.8974
vn -0.3797 0.1255 0.9166
vn -0.3699 0.2563 0.8930
vn -0.6834 0.2563 0.6835
vn -0.6868 0.2375 0.6868
vn -0.7015 0.1254 0.7015
vn -0.8974 0.2375 0.3717
vn -0.9166 0.1255 0.3797
vn -0.9714 0.2375 0.0000
vn -0.9921 0.1255 0.0000
vn -0.8974 0.2375 -0.3717
vn -0.9166 0.1255 -0.3797
vn -0.6868 0.2375 -0.6868
vn -0.7015 0.1255 -0.7015
vn -0.3717 0.2375 -0.8974
vn -0.3699 0.2563 -0.8930
vn 0.6834 0.2563 -0.6835
vn 0.3003 0.6121 -0.7315
vn 0.3827 0.0000 -0.9239
vn -0.3827 0.0000 -0.9239
vn -0.3003 0.6121 -0.7315
vn -0.3797 0.1255 -0.9166
vn 0.0000 0.1255 -0.9921
vn 0.3797 0.1255 -0.9166
vn -0.6834 0.2563 -0.6835
vn -0.8930 0.2563 -0.3699
vn -0.9666 0.2563 0.0000
vn -0.8930 0.2563 0.3699
vn 0.0000 0.2563 0.9666
vn 0.3699 0.2563 0.8930
vn 0.6834 0.2563 0.6835
vn 0.8930 0.2563 0.3699
vn 0.9666 0.2563 0.0000
vn 0.8930 0.2563 -0.3699
vn 0.2469 0.7638 -0.5962
vn 0.0000 0.7639 -0.6453
vn -0.2469 0.7638 -0.5962
vn -0.4563 0.7638 -0.4564
vn -0.5962 0.7638 -0.2470
vn -0.6453 0.7639 0.0000
vn -0.5962 0.7638 0.2470
vn -0.4563 0.7638 0.4564
vn -0.2469 0.7638 0.5962
vn 0.0000 0.7639 0.6453
vn 0.2470 0.7639 0.5962
vn 0.4563 0.7638 0.4563
vn 0.5962 0.7639 0.2470
vn 0.6453 0.7639 0.0000
vn 0.5962 0.7638 -0.2470
vn 0.4563 0.7638 -0.4564
vn 0.3827 0.0000 0.9239
vn 0.3002 0.6121 0.7315
vn -0.3002 0.6121 0.7315
vn -0.3827 0.0000 0.9239
vn -0.9239 0.0000 0.3827
vn -0.7315 0.6121 0.3002
vn -0.7315 0.6121 -0.3002
vn -0.9239 0.0000 -0.3827
vn 0.0276 0.9992 -0.0276
vn -0.0276 0.9992 -0.0276
vn -0.0276 0.9992 0.0276
vn 0.0276 0.9992 0.0276
vn 0.9239 0.0000 -0.3827
vn 0.7315 0.6121 -0.3002
vn 0.7315 0.6121 0.3003
vn 0.9239 0.0000 0.3827
vn 0.3826 0.0154 -0.9238
vn 0.0000 0.0154 -0.9999
vn 0.9999 0.0153 0.0000
vn 0.9238 0.0153 -0.3826
vn 0.0000 0.0154 0.9999
vn 0.3826 0.0154 0.9238
vn -0.3826 0.0153 -0.9238
vn -0.7070 0.0153 -0.7070
vn 0.7070 0.0153 -0.7070
vn 0.9238 0.0153 0.3826
vn 0.7070 0.0153 0.7070
vn -0.3826 0.0153 0.9238
vn -0.7070 0.0152 0.7070
vn -0.9238 0.0153 0.3826
vn -0.9999 0.0154 0.0000
vn -0.9238 0.0153 -0.3826
usemtl Material
s 1
f 72/1/1 40/2/2 8/3/3 76/4/4
f 36/5/5 128/6/6 70/7/7 1/8/8
f 76/4/4 8/3/3 12/9/9 80/10/10
f 80/10/10 12/9/9 16/11/11 84/12/12
f 84/12/12 16/11/11 20/13/13 88/14/14
f 88/14/14 20/13/13 24/15/15 92/16/16
f 92/16/16 24/15/15 28/17/17 96/18/18
f 96/18/18 28/17/17 44/19/19 102/20/20
f 41/21/19 100/22/21 104/23/22 45/24/23
f 102/20/20 44/19/19 48/25/23 106/26/24
f 106/26/24 48/25/23 52/27/25 110/28/26
f 110/28/26 52/27/25 56/29/27 114/30/28
f 114/30/28 56/29/27 60/31/29 118/32/30
f 118/32/30 60/31/29 32/33/31 120/34/32
f 61/35/33 125/36/34 128/6/6 36/5/5
f 1/8/8 70/7/7 74/37/35 37/38/2
f 137/39/36 129/40/37 136/41/38 148/42/39
f 124/43/40 64/44/33 33/45/5 66/46/41
f 66/46/41 33/45/5 4/47/8 68/48/42
f 64/49/33 63/50/33 34/51/5 33/52/5
f 63/53/33 62/54/33 35/55/5 34/56/5
f 62/57/33 61/58/33 36/59/5 35/60/5
f 29/61/31 122/62/43 125/36/34 61/35/33
f 32/63/31 31/64/31 63/50/33 64/49/33
f 31/65/31 30/66/31 62/54/33 63/53/33
f 30/67/31 29/68/31 61/58/33 62/57/33
f 120/34/32 32/33/31 64/44/33 124/43/40
f 60/69/29 59/70/29 31/64/31 32/63/31
f 59/71/29 58/72/29 30/66/31 31/65/31
f 58/73/29 57/74/29 29/68/31 30/67/31
f 57/75/29 116/76/44 122/62/43 29/61/31
f 56/77/27 55/78/27 59/70/29 60/69/29
f 55/79/27 54/80/27 58/72/29 59/71/29
f 54/81/27 53/82/27 57/74/29 58/73/29
f 53/83/27 112/84/45 116/76/44 57/75/29
f 52/85/25 51/86/25 55/78/27 56/77/27
f 51/87/25 50/88/25 54/80/27 55/79/27
f 50/89/25 49/90/25 53/82/27 54/81/27
f 49/91/25 108/92/46 112/84/45 53/83/27
f 48/93/23 47/94/23 51/86/25 52/85/25
f 47/95/23 46/96/23 50/88/25 51/87/25
f 46/97/23 45/98/23 49/90/25 50/89/25
f 45/24/23 104/23/22 108/92/46 49/91/25
f 44/99/19 43/100/19 47/94/23 48/93/23
f 43/101/19 42/102/19 46/96/23 47/95/23
f 42/103/19 41/104/19 45/98/23 46/97/23
f 25/105/17 98/106/47 100/22/21 41/21/19
f 28/107/17 27/108/17 43/100/19 44/99/19
f 27/109/17 26/110/17 42/102/19 43/101/19
f 26/111/17 25/112/17 41/104/19 42/103/19
f 21/113/15 93/114/48 98/106/47 25/105/17
f 24/115/15 23/116/15 27/108/17 28/107/17
f 23/117/15 22/118/15 26/110/17 27/109/17
f 22/119/15 21/120/15 25/112/17 26/111/17
f 17/121/13 90/122/49 93/114/48 21/113/15
f 20/123/13 19/124/13 23/116/15 24/115/15
f 19/125/13 18/126/13 22/118/15 23/117/15
f 18/127/13 17/128/13 21/120/15 22/119/15
f 13/129/11 86/130/50 90/122/49 17/121/13
f 16/131/11 15/132/11 19/124/13 20/123/13
f 15/133/11 14/134/11 18/126/13 19/125/13
f 14/135/11 13/136/11 17/128/13 18/127/13
f 9/137/9 82/138/51 86/130/50 13/129/11
f 12/139/9 11/140/9 15/132/11 16/131/11
f 11/141/9 10/142/9 14/134/11 15/133/11
f 10/143/9 9/144/9 13/136/11 14/135/11
f 5/145/3 77/146/52 82/138/51 9/137/9
f 8/147/3 7/148/3 11/140/9 12/139/9
f 7/149/3 6/150/3 10/142/9 11/141/9
f 6/151/3 5/152/3 9/144/9 10/143/9
f 37/38/2 74/37/35 77/146/52 5/145/3
f 40/153/2 39/154/2 7/148/3 8/147/3
f 39/155/2 38/156/2 6/150/3 7/149/3
f 38/157/2 37/158/2 5/152/3 6/151/3
f 69/159/53 127/160/54 126/161/55 121/162/56 115/163/57 111/164/58 107/165/59 103/166/60 99/167/61 97/168/62 94/169/63 89/170/64 85/171/65 81/172/66 78/173/67 73/174/68
f 4/175/8 3/176/8 39/154/2 40/153/2
f 3/177/8 2/178/8 38/156/2 39/155/2
f 2/179/8 1/180/8 37/158/2 38/157/2
f 68/48/42 4/47/8 40/2/2 72/1/1
f 33/52/5 34/51/5 3/176/8 4/175/8
f 34/56/5 35/55/5 2/178/8 3/177/8
f 35/60/5 36/59/5 1/180/8 2/179/8
f 132/181/69 140/182/70 144/183/71 133/184/72
f 134/185/73 143/186/74 146/187/75 135/188/76
f 138/189/77 147/190/78 145/191/79 142/192/80
f 130/193/81 139/194/82 141/195/83 131/196/84
f 137/39/36 138/189/77 139/194/82
f 140/182/70 141/195/83 142/192/80
f 143/186/74 144/183/71 145/191/79
f 146/187/75 147/190/78 148/42/39
f 66/46/41 68/48/42 67/197/85 65/198/86
f 76/4/4 80/10/10 79/199/87 75/200/88
f 82/138/51 77/146/52 78/173/67 81/172/66
f 92/16/16 96/18/18 95/201/89 91/202/90
f 98/106/47 93/114/48 94/169/63 97/168/62
f 100/22/21 98/106/47 97/168/62 99/167/61
f 120/34/32 124/43/40 123/203/91 119/204/92
f 128/6/6 125/36/34 126/161/55 127/160/54
f 70/7/7 128/6/6 127/160/54 69/159/53
f 68/48/42 72/1/1 71/205/93 67/197/85
f 74/37/35 70/7/7 69/159/53 73/174/68
f 72/1/1 76/4/4 75/200/88 71/205/93
f 77/146/52 74/37/35 73/174/68 78/173/67
f 80/10/10 84/12/12 83/206/94 79/199/87
f 86/130/50 82/138/51 81/172/66 85/171/65
f 84/12/12 88/14/14 87/207/95 83/206/94
f 90/122/49 86/130/50 85/171/65 89/170/64
f 88/14/14 92/16/16 91/202/90 87/207/95
f 93/114/48 90/122/49 89/170/64 94/169/63
f 96/18/18 102/20/20 101/208/96 95/201/89
f 102/20/20 106/26/24 105/209/97 101/208/96
f 104/23/22 100/22/21 99/167/61 103/166/60
f 106/26/24 110/28/26 109/210/98 105/209/97
f 108/92/46 104/23/22 103/166/60 107/165/59
f 110/28/26 114/30/28 113/211/99 109/210/98
f 112/84/45 108/92/46 107/165/59 111/164/58
f 114/30/28 118/32/30 117/212/100 113/211/99
f 116/76/44 112/84/45 111/164/58 115/163/57
f 118/32/30 120/34/32 119/204/92 117/212/100
f 122/62/43 116/76/44 115/163/57 121/162/56
f 125/36/34 122/62/43 121/162/56 126/161/55
f 124/43/40 66/46/41 65/198/86 123/203/91
f 129/40/37 137/39/36 139/194/82 130/193/81
f 131/196/84 141/195/83 140/182/70 132/181/69
f 133/184/72 144/183/71 143/186/74 134/185/73
f 135/188/76 146/187/75 148/42/39 136/41/38
f 138/189/77 142/192/80 141/195/83 139/194/82
f 137/39/36 148/42/39 147/190/78 138/189/77
f 142/192/80 145/191/79 144/183/71 140/182/70
f 145/191/79 147/190/78 146/187/75 143/186/74
