# Blender v2.78 (sub 0) OBJ File: ''
# www.blender.org
mtllib Road.mtl
o Circle.001_Circle.002
v 11.328925 0.000000 8.373082
v 11.328925 0.273364 8.373082
v -11.291079 0.000000 8.373082
v -11.291079 0.273364 8.373082
v -11.291079 0.273364 11.310001
v 11.328925 0.000000 4.186541
v -11.291079 0.000000 4.186541
v -11.291079 0.000000 0.427735
v 11.328925 0.000000 0.427735
v 11.328925 0.039052 8.373082
v -11.291079 0.039052 8.373082
v 11.328925 0.234312 8.373082
v -11.291079 0.234312 8.373082
v 11.328925 0.273364 8.420238
v -11.291079 0.273364 8.420238
v 11.328926 0.273364 11.310002
v 11.328925 0.000000 -8.373082
v 11.328925 0.273364 -8.373082
v -11.291079 0.000000 -8.373082
v -11.291079 0.273364 -8.373082
v -11.291079 0.273364 -11.310001
v 11.328925 0.000000 -4.186541
v -11.291079 0.000000 -4.186541
v -11.291079 0.000000 -0.427735
v 11.328925 0.000000 -0.427735
v 11.328925 0.039052 -8.373082
v -11.291079 0.039052 -8.373082
v 11.328925 0.234312 -8.373082
v -11.291079 0.234312 -8.373082
v 11.328925 0.273364 -8.420238
v -11.291079 0.273364 -8.420238
v -11.291079 0.000000 0.000000
v 11.328925 0.000000 0.000000
v 11.328926 0.273364 -11.310002
vt 0.9557 0.9780
vt 0.9558 0.9774
vt 0.9897 0.9803
vt 0.9896 0.9809
vt 0.9566 0.9820
vt 0.9566 0.9814
vt 0.9870 0.9814
vt 0.9870 0.9820
vt 0.4384 0.0248
vt 0.5963 0.0248
vt 0.5963 0.8781
vt 0.4384 0.8781
vt 0.7381 0.0248
vt 0.7543 0.0248
vt 0.7543 0.8781
vt 0.7381 0.8781
vt 0.4168 0.6021
vt 0.4065 0.6020
vt 0.4067 0.0139
vt 0.4170 0.0140
vt 0.9558 0.9768
vt 0.9897 0.9798
vt 0.3940 0.8886
vt 0.2822 0.8886
vt 0.2822 0.0137
vt 0.3940 0.0137
vt 0.9557 0.9780
vt 0.9896 0.9809
vt 0.9897 0.9803
vt 0.9558 0.9774
vt 0.9566 0.9820
vt 0.9870 0.9820
vt 0.9870 0.9814
vt 0.9566 0.9814
vt 0.4384 0.0248
vt 0.4384 0.8781
vt 0.5963 0.8781
vt 0.5963 0.0248
vt 0.7381 0.0248
vt 0.7381 0.8781
vt 0.4168 0.6021
vt 0.4170 0.0140
vt 0.4067 0.0139
vt 0.4065 0.6020
vt 0.9897 0.9798
vt 0.9558 0.9768
vt 0.3940 0.8886
vt 0.3940 0.0137
vt 0.2822 0.0137
vt 0.2822 0.8886
vn 0.0000 1.0000 0.0000
vn 0.0000 0.0000 -1.0000
vn 0.0000 0.0000 1.0000
usemtl None
s off
f 14/1/1 2/2/1 4/3/1 15/4/1
f 10/5/2 1/6/2 3/7/2 11/8/2
f 1/9/1 6/10/1 7/11/1 3/12/1
f 9/13/1 33/14/1 32/15/1 8/16/1
f 6/10/1 9/13/1 8/16/1 7/11/1
f 12/17/2 10/18/2 11/19/2 13/20/2
f 2/2/2 12/21/2 13/22/2 4/3/2
f 16/23/1 14/24/1 15/25/1 5/26/1
f 30/27/1 31/28/1 20/29/1 18/30/1
f 26/31/3 27/32/3 19/33/3 17/34/3
f 17/35/1 19/36/1 23/37/1 22/38/1
f 25/39/1 24/40/1 32/15/1 33/14/1
f 22/38/1 23/37/1 24/40/1 25/39/1
f 28/41/3 29/42/3 27/43/3 26/44/3
f 18/30/3 20/29/3 29/45/3 28/46/3
f 34/47/1 21/48/1 31/49/1 30/50/1
