# Blender v2.79 (sub 0) OBJ File: ''
# www.blender.org
mtllib Wall.mtl
o Cube_Cube.020
v -2.000000 0.000000 -0.149151
v -2.000000 2.000000 -0.149151
v -2.000000 0.000000 0.149151
v -2.000000 2.000000 0.149151
v 2.000000 0.000000 -0.149151
v 2.000000 2.000000 -0.149151
v 2.000000 0.000000 0.149151
v 2.000000 2.000000 0.149151
v 0.000000 0.000000 0.149151
v 0.000000 2.000000 0.149151
v 0.000000 0.000000 -0.149151
v 0.000000 2.000000 -0.149151
v -2.010000 1.981597 -0.172935
v -2.010000 2.018403 -0.172935
v -2.010000 1.981597 0.172935
v -2.010000 2.018403 0.172935
v 2.010000 1.981597 -0.172935
v 2.010000 2.018403 -0.172935
v 2.010000 1.981597 0.172935
v 2.010000 2.018403 0.172935
vt 0.685014 0.893056
vt 0.685014 0.824482
vt 0.010832 0.824481
vt 0.010832 0.893056
vt 0.800929 0.007241
vt 0.011611 0.007241
vt 0.011611 0.804407
vt 0.800929 0.804407
vt 0.010832 0.824481
vt 0.010832 0.893056
vt 0.685014 0.893056
vt 0.685014 0.824482
vt 0.800929 0.007241
vt 0.011611 0.007241
vt 0.011611 0.804407
vt 0.800929 0.804407
vt 0.011554 0.007184
vt 0.011554 0.007184
vt 0.011554 0.007184
vt 0.011554 0.007184
vt 0.011554 0.007184
vt 0.011554 0.007184
vt 0.800929 0.007241
vt 0.011611 0.007241
vt 0.011611 0.804407
vt 0.800929 0.804407
vt 0.800929 0.007241
vt 0.011611 0.007241
vt 0.011611 0.804407
vt 0.800929 0.804407
vt 0.971411 0.840021
vt 0.921574 0.756567
vt 0.894162 0.768481
vt 0.942861 0.853103
vt 0.976178 0.041485
vt 0.969499 0.833152
vt 0.973074 0.836851
vt 0.979851 0.038068
vt 0.927582 0.020851
vt 0.990015 0.059258
vt 0.954658 0.067288
vt 0.894144 0.028008
vt 0.906398 0.856449
vt 0.912768 0.018440
vt 0.916052 0.014599
vt 0.909585 0.860586
vn -1.0000 0.0000 0.0000
vn 0.0000 0.0000 1.0000
vn 1.0000 0.0000 0.0000
vn 0.0000 0.0000 -1.0000
vn 0.0000 1.0000 0.0000
vn 0.0000 -1.0000 0.0000
usemtl None
s off
f 1/1/1 3/2/1 4/3/1 2/4/1
f 9/5/2 7/6/2 8/7/2 10/8/2
f 7/9/3 5/10/3 6/11/3 8/12/3
f 11/13/4 1/14/4 2/15/4 12/16/4
f 10/17/5 12/18/5 2/19/5 4/20/5
f 8/21/5 6/22/5 12/18/5 10/17/5
f 5/23/4 11/24/4 12/25/4 6/26/4
f 3/27/2 9/28/2 10/29/2 4/30/2
f 13/31/1 15/32/1 16/33/1 14/34/1
f 15/35/2 19/36/2 20/37/2 16/38/2
f 19/39/3 17/40/3 18/41/3 20/42/3
f 17/43/4 13/44/4 14/45/4 18/46/4
f 15/35/6 13/44/6 17/43/6 19/36/6
f 20/37/5 18/46/5 14/45/5 16/38/5
